<svg id="Capa_1" data-name="Capa 1" xmlns="http://www.w3.org/2000/svg" viewBox="0 0 503.49 503.49"><defs><style>.cls-1{fill:#00c7b4;}.cls-2{fill:#fff;}</style></defs><circle class="cls-1" cx="251.75" cy="251.75" r="251.75"/><path d="M241,590.57h-4.08c-.3-.07-.59-.16-.88-.21-2.2-.39-4.45-.59-6.59-1.18-8.91-2.47-14.6-8.53-18.19-16.78s-4.74-16.88-5.53-25.66c-.78-8.59-1.39-17.2-2.2-25.79a34.59,34.59,0,0,0-2.64-10.9,9,9,0,0,0-3.45-4.33,120.19,120.19,0,0,1-19.79-15.3,6,6,0,0,0-.59-.46c-.77,4.22-1.27,8.49-2.35,12.59-3.12,11.81-9.46,21.51-19.72,28.39-5.39,3.62-11.29,5.86-17.92,5.37-5.49-.41-9.74-2.9-12.1-8.08a16.3,16.3,0,0,1-1.19-9.27,34.41,34.41,0,0,0-3.16-20.51,53.77,53.77,0,0,0-12.92-16.81c-2.8-2.48-6-4.5-8.79-7-8.07-7.38-15.6-15.27-21.74-24.37-3.87-5.74-7-11.83-8.39-18.68-.36-1.78-.56-3.6-.83-5.4v-2.88c.27-1.72.47-3.46.84-5.16,1.52-7,5.24-12.89,9.91-18.22,5.46-6.22,11.82-11.46,18.22-16.65,8.59-7,17.32-13.82,25-21.84a78.21,78.21,0,0,0,14.75-20.56c1.95-4.11,3.63-8.35,5.65-12.43,3.61-7.28,8.09-14,14.29-19.36,6.49-5.65,14-8.8,22.65-8.6,7.72.18,14.68,2.85,21.08,7a1.58,1.58,0,0,0,2.09,0c3.87-2.55,7.71-5.16,11.72-7.47,16.4-9.46,33.8-15.7,53-16a67.78,67.78,0,0,1,25.51,4.12,6.9,6.9,0,0,0,5.3,0c13-4.78,26.33-5.12,39.82-2.8a113,113,0,0,1,36.59,13.46c5.07,2.87,10,6.06,14.95,9.11,2.17-1.19,4.41-2.58,6.79-3.7,7.55-3.57,15.42-4.94,23.66-2.88,7.86,2,14,6.6,19.21,12.65a78.28,78.28,0,0,1,12.27,20.62c.38.87.85,1.2,1.71,1,1.63-.38,3.27-.74,4.88-1.19,13.17-3.75,26-8.44,37.89-15.3,7-4,15.47.11,17.22,8.05,2.65,12,2.74,24.19,1.36,36.37a163.31,163.31,0,0,1-6.6,30.52,1.6,1.6,0,0,0,.45,1.77A126.48,126.48,0,0,1,516.57,406a31.93,31.93,0,0,1,5.51,24.6,48.67,48.67,0,0,1-6.89,17c-5.57,9-12.71,16.72-20.27,24.06a34.05,34.05,0,0,1-4,3.6,68.17,68.17,0,0,0-15.29,14.26c-4.57,5.86-7.83,12.31-8.89,19.76-.52,3.65-.08,7.25.27,10.87.76,7.94-3.85,14.43-11.29,15.87a23.75,23.75,0,0,1-14.81-2.21c-10.89-5.1-18.12-13.67-22.72-24.6-1-2.41-1.75-4.94-2.64-7.47l-.79.05c-4.22.32-8.44.86-12.66.89a13.41,13.41,0,0,0-7.69,2.2,12.5,12.5,0,0,0-5.29,6.83,63.58,63.58,0,0,0-2.63,14.84c-.77,8.68-1.35,17.37-2.22,26a66.3,66.3,0,0,1-4.53,19c-4.1,9.86-11,16.45-21.8,18.31-1.45.25-2.9.41-4.35.61H349.5a2.81,2.81,0,0,0-.53-.19,158.75,158.75,0,0,1-29-5.07,53.68,53.68,0,0,0-17.13-2.19c-5.18.23-10.38.11-15.57,0-4.37-.08-8.7,0-12.94,1.21a172.88,172.88,0,0,1-28,5.58Zm143.28-88.88c-2-.45-3.73-.77-5.45-1.28a164.84,164.84,0,0,1-47-22c-9.5-6.52-17.9-14.24-24.38-23.85-9.48-14.09-13.75-29.41-10.55-46.41a3,3,0,0,0-.2-1.38c-1.15-3.37-2.4-6.7-3.48-10.08-5.69-17.83-9.15-36-8.05-54.82A78,78,0,0,1,287.55,326a11.53,11.53,0,0,1,10.94-8.34,11.35,11.35,0,0,1,6,1.48c12.64,7.43,26.35,12.16,40.4,16.05a11.44,11.44,0,0,0,8.45-1c4.33-2.14,8.68-4.27,13.17-6a78.61,78.61,0,0,1,29-5.42c2.27,0,4.54.1,6.82.14,2.67,0,5.36-.06,8,.17a91.8,91.8,0,0,1,26.72,6.77c.68.28,1.37.54,2.34.91-4-7.11-8.37-13.43-15.14-17.72a21.89,21.89,0,0,0-10.7-3.51c-7.92-.39-14.66,2.65-20.81,7.3-2.55,1.93-4.21,2-6.8.15a147.09,147.09,0,0,0-23.28-14c-13.39-6.35-27.35-10.27-42.31-9.86-8,.22-15.8,1.59-23.09,5.16a4.32,4.32,0,0,1-3.93,0c-.9-.42-1.8-.87-2.73-1.23-10-3.92-20.42-4.65-31-3.49a97.22,97.22,0,0,0-30.56,8.9,147.71,147.71,0,0,0-24.65,14.74c-2.21,1.61-4,1.44-6.25-.09a59.7,59.7,0,0,0-7.84-4.81,24.87,24.87,0,0,0-16.9-2.22c-5.67,1.33-10.13,4.63-14,8.84-5.33,5.84-9,12.69-12,19.91a90.23,90.23,0,0,1-7,13.77c-6.08,9.54-13.85,17.57-22.4,24.86-7.33,6.25-14.86,12.27-22.24,18.47A76.22,76.22,0,0,0,82.21,410C78,416,76.05,422.43,77.58,429.71a43.2,43.2,0,0,0,6.35,14.39,112.36,112.36,0,0,0,14.58,17.62,82.34,82.34,0,0,0,9.58,8.49,69.2,69.2,0,0,1,17.1,18c5.84,9,8.87,18.7,7.82,29.52a33.89,33.89,0,0,0-.23,5.13,4.36,4.36,0,0,0,4.05,4.33,14.84,14.84,0,0,0,4.75-.13A26.77,26.77,0,0,0,155,519.4c8.75-8.66,12.39-19.44,12.76-31.51.16-5.14-.71-10.18-1.38-15.26-1.17-8.87-2.28-17.76-2.93-26.68-.83-11.32-1.36-22.66-1.67-34a291.59,291.59,0,0,1,1.25-37.26c.72-7.27,1.78-14.51,2.8-21.74a4.3,4.3,0,0,1,5.29-3.62,4.47,4.47,0,0,1,3.52,5.29,296.6,296.6,0,0,0-3.94,46.66c-.19,13.4.31,26.78,1.35,40.13.87,11.24,1.9,22.46,3.85,33.58a3.26,3.26,0,0,0,.75,1.55,114.88,114.88,0,0,0,24.69,21,19.52,19.52,0,0,1,8.18,9.86c2.3,5.88,3,12.07,3.59,18.28.78,8.68,1.35,17.37,2.21,26a56.66,56.66,0,0,0,4,16.83c2.06,4.85,5,8.9,10,11.13a23.74,23.74,0,0,0,12.22,1.73A153.72,153.72,0,0,0,267.11,577c6.07-1.67,12.13-3.1,18.51-2.91,5.94.19,11.9.19,17.85.07a56.4,56.4,0,0,1,15.09,1.49c5.88,1.48,11.79,2.88,17.75,4a79.68,79.68,0,0,0,16.3,1.84c8.12-.16,14.13-3.72,17.79-11.08a46.39,46.39,0,0,0,3.81-11.69c1.82-9.17,2.1-18.49,2.93-27.76.51-5.76,1.24-11.52,2.14-17.23A26.75,26.75,0,0,1,384.29,501.69Zm40.15-1.92c.45,1.4.85,2.86,1.38,4.27,3.2,8.53,8.3,15.55,16.25,20.25A19.54,19.54,0,0,0,452,527.4c4.05,0,6-1.93,6-5.94a13.65,13.65,0,0,0-.1-1.92,41.92,41.92,0,0,1,3.22-23.31c4.1-9.39,10.54-17,18.31-23.54,2.19-1.85,4.69-3.36,6.81-5.29a138.78,138.78,0,0,0,14.94-15.72c4.44-5.49,8.4-11.28,10.78-18,3.71-10.44,1-19.69-7.77-28.74a6.54,6.54,0,0,0-.68,4.86c2.16,13-.27,25.28-6.17,36.93-5.33,10.52-13,19.1-22.12,26.49-10.76,8.74-22.8,15.29-35.54,20.61C434.74,495.91,429.67,497.75,424.44,499.77Zm-24.3-82.28c-3.44,0-6.87,0-10.31,0-1.36,0-2.59.18-3.23,1.54s-.12,2.37.68,3.43c3.48,4.63,6.91,9.29,10.37,13.94,1.42,1.92,3.44,2,4.85.06,3.54-4.74,7-9.5,10.58-14.23a2.93,2.93,0,0,0,.5-3.23,2.85,2.85,0,0,0-2.89-1.51C407.17,417.5,403.65,417.49,400.14,417.49Zm45-11.44a8.42,8.42,0,1,0-8.48-8.39A8.38,8.38,0,0,0,445.14,406.05Zm-81.68-8.38a8.42,8.42,0,1,0-8.46,8.38A8.35,8.35,0,0,0,363.46,397.67Zm36.6,55.83a13.37,13.37,0,0,0,14.45,5.3,19.11,19.11,0,0,0,8.58-5,1.41,1.41,0,0,0,.13-2.14,1.39,1.39,0,0,0-2.13,0c-.48.42-.95.86-1.45,1.26-2.89,2.34-6.09,3.75-9.93,3.34-4.42-.47-7.9-3.74-8.11-7.76-.06-1-.36-1.74-1.45-1.84-.93-.08-1.46.55-1.58,1.83a7.85,7.85,0,0,1-4.5,6.63,10.75,10.75,0,0,1-10.55-.24,34.1,34.1,0,0,1-4.35-3.15c-.78-.61-1.55-.8-2.23,0a1.48,1.48,0,0,0,.21,2.23c.5.46,1,.91,1.54,1.34C386.14,461.39,395.68,460.12,400.06,453.5Zm-61.3-24a78.29,78.29,0,0,0-22,3c-1.25.36-1.79,1.13-1.5,2s1.06,1.14,2.28.83c2-.51,4-1.07,6-1.46,12.28-2.37,24.49-1.65,36.61,1.09,2.53.57,5,1.34,7.5,2,.91.25,1.63.05,1.94-.86a1.38,1.38,0,0,0-.95-1.9c-.37-.14-.75-.27-1.13-.39A100.63,100.63,0,0,0,338.76,429.51Zm122.63,0,0-.3c-5.16.52-10.36.79-15.46,1.62-4.75.78-9.41,2.14-14.1,3.27a1.53,1.53,0,0,0-1.35,1.91c.2.91,1.05,1.29,2.11,1a95.74,95.74,0,0,1,18.95-4,77.42,77.42,0,0,1,19.83.08c3.86.57,7.66,1.5,11.48,2.31,1.34.28,2.25-.38,2.08-1.61-.13-1-.9-1.14-1.62-1.35A77.49,77.49,0,0,0,461.39,429.52Zm15.82-11.95a1.44,1.44,0,0,0-1.73-1.48c-1.15.14-2.29.36-3.42.59-11.76,2.33-23.28,5.56-34.78,8.89q-2.88.82-5.73,1.71c-.83.26-1.39.9-1.07,1.71a2.8,2.8,0,0,0,1.44,1.17c.27.13.75-.14,1.14-.25,6.33-1.81,12.62-3.77,19-5.39,7.8-2,15.68-3.69,23.54-5.48C476.54,418.83,477.16,418.49,477.21,417.57ZM324.63,416a1.5,1.5,0,0,0-1.69,1.41,1.41,1.41,0,0,0,1.3,1.59l.23,0c8.82,2.07,17.66,4.05,26.44,6.26,5.61,1.41,11.13,3.15,16.69,4.77,1,.28,1.68.1,2-.85s-.13-1.61-1.2-2l-.34-.1c-11.06-3-22.1-6-33.17-9C331.55,417.26,328.07,416.69,324.63,416Z" transform="translate(-45.89 -186.66)"/><path class="cls-2" d="M384.29,501.69a26.75,26.75,0,0,0-5,12c-.9,5.71-1.63,11.47-2.14,17.23-.83,9.27-1.11,18.59-2.93,27.76a46.39,46.39,0,0,1-3.81,11.69c-3.66,7.36-9.67,10.92-17.79,11.08a79.68,79.68,0,0,1-16.3-1.84c-6-1.13-11.87-2.53-17.75-4a56.4,56.4,0,0,0-15.09-1.49c-6,.12-11.91.12-17.85-.07-6.38-.19-12.44,1.24-18.51,2.91a153.72,153.72,0,0,1-25.47,4.42,23.74,23.74,0,0,1-12.22-1.73c-5-2.23-7.95-6.28-10-11.13a56.66,56.66,0,0,1-4-16.83c-.86-8.67-1.43-17.36-2.21-26-.56-6.21-1.29-12.4-3.59-18.28a19.52,19.52,0,0,0-8.18-9.86,114.88,114.88,0,0,1-24.69-21,3.26,3.26,0,0,1-.75-1.55c-1.95-11.12-3-22.34-3.85-33.58-1-13.35-1.54-26.73-1.35-40.13a296.6,296.6,0,0,1,3.94-46.66,4.47,4.47,0,0,0-3.52-5.29,4.3,4.3,0,0,0-5.29,3.62c-1,7.23-2.08,14.47-2.8,21.74A291.59,291.59,0,0,0,161.82,412c.31,11.34.84,22.68,1.67,34,.65,8.92,1.76,17.81,2.93,26.68.67,5.08,1.54,10.12,1.38,15.26-.37,12.07-4,22.85-12.76,31.51a26.77,26.77,0,0,1-13.46,7.65,14.84,14.84,0,0,1-4.75.13,4.36,4.36,0,0,1-4.05-4.33,33.89,33.89,0,0,1,.23-5.13c1.05-10.82-2-20.54-7.82-29.52a69.2,69.2,0,0,0-17.1-18,82.34,82.34,0,0,1-9.58-8.49A112.36,112.36,0,0,1,83.93,444.1a43.2,43.2,0,0,1-6.35-14.39C76.05,422.43,78,416,82.21,410a76.22,76.22,0,0,1,13.63-14.11c7.38-6.2,14.91-12.22,22.24-18.47,8.55-7.29,16.32-15.32,22.4-24.86a90.23,90.23,0,0,0,7-13.77c3-7.22,6.69-14.07,12-19.91,3.84-4.21,8.3-7.51,14-8.84a24.87,24.87,0,0,1,16.9,2.22,59.7,59.7,0,0,1,7.84,4.81c2.21,1.53,4,1.7,6.25.09a147.71,147.71,0,0,1,24.65-14.74,97.22,97.22,0,0,1,30.56-8.9c10.59-1.16,21-.43,31,3.49.93.36,1.83.81,2.73,1.23a4.32,4.32,0,0,0,3.93,0c7.29-3.57,15.07-4.94,23.09-5.16,15-.41,28.92,3.51,42.31,9.86A147.09,147.09,0,0,1,386,317c2.59,1.88,4.25,1.78,6.8-.15,6.15-4.65,12.89-7.69,20.81-7.3a21.89,21.89,0,0,1,10.7,3.51c6.77,4.29,11.16,10.61,15.14,17.72-1-.37-1.66-.63-2.34-.91a91.8,91.8,0,0,0-26.72-6.77c-2.66-.23-5.35-.12-8-.17-2.28,0-4.55-.12-6.82-.14a78.61,78.61,0,0,0-29,5.42c-4.49,1.73-8.84,3.86-13.17,6a11.44,11.44,0,0,1-8.45,1c-14.05-3.89-27.76-8.62-40.4-16.05a11.35,11.35,0,0,0-6-1.48A11.53,11.53,0,0,0,287.55,326a78,78,0,0,0-2.37,15.86c-1.1,18.83,2.36,37,8.05,54.82,1.08,3.38,2.33,6.71,3.48,10.08a3,3,0,0,1,.2,1.38c-3.2,17,1.07,32.32,10.55,46.41,6.48,9.61,14.88,17.33,24.38,23.85a164.84,164.84,0,0,0,47,22C380.56,500.92,382.34,501.24,384.29,501.69Zm-127-194.11c-6.57,0-10.72,1.52-14,5-1.22,1.28-2.39,2.59-3.49,4a27.47,27.47,0,0,1-10,7.86c-4.17,1.91-8.42,3.66-12.61,5.52a28.67,28.67,0,0,0-12.4,9.71c-3,4.33-3.84,9-1.74,14,.41,1,.76,2,1.09,3a8.14,8.14,0,0,1-.58,6.95,16.49,16.49,0,0,1-3.59,4.57,75.39,75.39,0,0,1-8.64,5.81,23.76,23.76,0,0,0-10.51,12,113.08,113.08,0,0,0-7.46,33.19A118,118,0,0,0,174.53,447a110.6,110.6,0,0,0,7.4,26c2.16,5,5.65,7.32,12.14,6.81,5.63-.44,10.39-2.95,14.72-6.4a62,62,0,0,0,12.11-13.7c5.72-8.34,12.06-16,20.72-21.53a21,21,0,0,0,6.85-7.75q1.42-2.56,2.88-5.12a17.84,17.84,0,0,1,7.64-7.38c1.36-.68,2.69-1.41,4-2.11,4-2.06,7.14-4.84,8.39-9.34a21.32,21.32,0,0,0,.41-8.92q-.91-6-2.14-12a16.45,16.45,0,0,1,1.23-11,47.28,47.28,0,0,0,3.2-8.88c1.74-6.68,3.16-13.45,4.83-20.15,1.46-5.85,3.21-11.62,4.6-17.48,1.45-6.07-.2-9.84-5.66-12.82a122.55,122.55,0,0,0-11.38-5.32A28,28,0,0,0,257.32,307.58ZM291.87,472c-3.05.38-6.13.59-9.13,1.17-10.56,2.07-19.7,7.13-28,13.86a9.25,9.25,0,0,0-1.12,13.12c6.55,7.81,13.09,15.63,19.75,23.35a23.81,23.81,0,0,0,35.81.65c6.73-7.27,13.23-14.76,19.76-22.22a9.13,9.13,0,0,0-.49-12.7,86,86,0,0,0-8.25-7.12A48.4,48.4,0,0,0,291.87,472Z" transform="translate(-45.89 -186.66)"/><path class="cls-2" d="M424.44,499.77c5.23-2,10.3-3.86,15.26-5.94,12.74-5.32,24.78-11.87,35.54-20.61,9.1-7.39,16.79-16,22.12-26.49,5.9-11.65,8.33-23.93,6.17-36.93a6.54,6.54,0,0,1,.68-4.86c8.82,9.05,11.48,18.3,7.77,28.74-2.38,6.72-6.34,12.51-10.78,18a138.78,138.78,0,0,1-14.94,15.72c-2.12,1.93-4.62,3.44-6.81,5.29-7.77,6.54-14.21,14.15-18.31,23.54a41.92,41.92,0,0,0-3.22,23.31,13.65,13.65,0,0,1,.1,1.92c0,4-1.95,5.95-6,5.94a19.54,19.54,0,0,1-9.95-3.11c-7.95-4.7-13.05-11.72-16.25-20.25C425.29,502.63,424.89,501.17,424.44,499.77Z" transform="translate(-45.89 -186.66)"/><path class="cls-2" d="M400.14,417.49c3.51,0,7,0,10.55,0a2.85,2.85,0,0,1,2.89,1.51,2.93,2.93,0,0,1-.5,3.23c-3.54,4.73-7,9.49-10.58,14.23-1.41,1.9-3.43,1.86-4.85-.06-3.46-4.65-6.89-9.31-10.37-13.94-.8-1.06-1.28-2.15-.68-3.43s1.87-1.56,3.23-1.54C393.27,417.51,396.7,417.49,400.14,417.49Z" transform="translate(-45.89 -186.66)"/><path class="cls-2" d="M445.14,406.05a8.42,8.42,0,1,1,0-16.84,8.42,8.42,0,0,1,0,16.84Z" transform="translate(-45.89 -186.66)"/><path class="cls-2" d="M363.46,397.67a8.27,8.27,0,0,1-8.46,8.38,8.42,8.42,0,1,1,8.46-8.38Z" transform="translate(-45.89 -186.66)"/><path class="cls-2" d="M400.06,453.5c-4.38,6.62-13.92,7.89-21.37,1.69-.52-.43-1-.88-1.54-1.34a1.48,1.48,0,0,1-.21-2.23c.68-.77,1.45-.58,2.23,0a34.1,34.1,0,0,0,4.35,3.15,10.75,10.75,0,0,0,10.55.24,7.85,7.85,0,0,0,4.5-6.63c.12-1.28.65-1.91,1.58-1.83,1.09.1,1.39.83,1.45,1.84.21,4,3.69,7.29,8.11,7.76,3.84.41,7-1,9.93-3.34.5-.4,1-.84,1.45-1.26a1.39,1.39,0,0,1,2.13,0,1.41,1.41,0,0,1-.13,2.14,19.11,19.11,0,0,1-8.58,5A13.37,13.37,0,0,1,400.06,453.5Z" transform="translate(-45.89 -186.66)"/><path class="cls-2" d="M338.76,429.51a100.63,100.63,0,0,1,28.79,4.34c.38.12.76.25,1.13.39a1.38,1.38,0,0,1,.95,1.9c-.31.91-1,1.11-1.94.86-2.49-.7-5-1.47-7.5-2-12.12-2.74-24.33-3.46-36.61-1.09-2,.39-4,.95-6,1.46-1.22.31-2,.05-2.28-.83s.25-1.67,1.5-2A78.29,78.29,0,0,1,338.76,429.51Z" transform="translate(-45.89 -186.66)"/><path class="cls-2" d="M461.39,429.52a77.49,77.49,0,0,1,21.89,2.92c.72.21,1.49.4,1.62,1.35.17,1.23-.74,1.89-2.08,1.61-3.82-.81-7.62-1.74-11.48-2.31a77.42,77.42,0,0,0-19.83-.08,95.74,95.74,0,0,0-18.95,4c-1.06.34-1.91,0-2.11-1a1.53,1.53,0,0,1,1.35-1.91c4.69-1.13,9.35-2.49,14.1-3.27,5.1-.83,10.3-1.1,15.46-1.62Z" transform="translate(-45.89 -186.66)"/><path class="cls-2" d="M477.21,417.57c0,.92-.67,1.26-1.61,1.47-7.86,1.79-15.74,3.5-23.54,5.48-6.38,1.62-12.67,3.58-19,5.39-.39.11-.87.38-1.14.25a2.8,2.8,0,0,1-1.44-1.17c-.32-.81.24-1.45,1.07-1.71q2.85-.88,5.73-1.71c11.5-3.33,23-6.56,34.78-8.89,1.13-.23,2.27-.45,3.42-.59A1.44,1.44,0,0,1,477.21,417.57Z" transform="translate(-45.89 -186.66)"/><path class="cls-2" d="M324.63,416c3.44.71,6.92,1.28,10.31,2.17,11.07,2.93,22.11,6,33.17,9l.34.1c1.07.37,1.54,1.09,1.2,2s-1.09,1.13-2,.85c-5.56-1.62-11.08-3.36-16.69-4.77-8.78-2.21-17.62-4.19-26.44-6.26l-.23,0a1.41,1.41,0,0,1-1.3-1.59A1.5,1.5,0,0,1,324.63,416Z" transform="translate(-45.89 -186.66)"/><path d="M257.32,307.58a28,28,0,0,1,9.19,2.25,122.55,122.55,0,0,1,11.38,5.32c5.46,3,7.11,6.75,5.66,12.82-1.39,5.86-3.14,11.63-4.6,17.48-1.67,6.7-3.09,13.47-4.83,20.15a47.28,47.28,0,0,1-3.2,8.88,16.45,16.45,0,0,0-1.23,11q1.23,6,2.14,12a21.32,21.32,0,0,1-.41,8.92c-1.25,4.5-4.43,7.28-8.39,9.34-1.35.7-2.68,1.43-4,2.11a17.84,17.84,0,0,0-7.64,7.38q-1.46,2.55-2.88,5.12a21,21,0,0,1-6.85,7.75c-8.66,5.52-15,13.19-20.72,21.53a62,62,0,0,1-12.11,13.7c-4.33,3.45-9.09,6-14.72,6.4-6.49.51-10-1.78-12.14-6.81a110.6,110.6,0,0,1-7.4-26,118,118,0,0,1-1.19-27.84A113.08,113.08,0,0,1,180.8,386a23.76,23.76,0,0,1,10.51-12,75.39,75.39,0,0,0,8.64-5.81,16.49,16.49,0,0,0,3.59-4.57,8.14,8.14,0,0,0,.58-6.95c-.33-1-.68-2-1.09-3-2.1-5-1.27-9.62,1.74-14a28.67,28.67,0,0,1,12.4-9.71c4.19-1.86,8.44-3.61,12.61-5.52a27.47,27.47,0,0,0,10-7.86c1.1-1.37,2.27-2.68,3.49-4C246.6,309.1,250.75,307.55,257.32,307.58Zm-39.39,88.5a10.58,10.58,0,1,0,10.56-10.67A10.6,10.6,0,0,0,217.93,396.08Z" transform="translate(-45.89 -186.66)"/><path d="M291.87,472a48.4,48.4,0,0,1,28.38,10.11,86,86,0,0,1,8.25,7.12,9.13,9.13,0,0,1,.49,12.7c-6.53,7.46-13,15-19.76,22.22a23.81,23.81,0,0,1-35.81-.65c-6.66-7.72-13.2-15.54-19.75-23.35A9.25,9.25,0,0,1,254.79,487c8.25-6.73,17.39-11.79,28-13.86C285.74,472.56,288.82,472.35,291.87,472Z" transform="translate(-45.89 -186.66)"/><path class="cls-2" d="M217.93,396.08a10.58,10.58,0,1,1,10.66,10.53A10.68,10.68,0,0,1,217.93,396.08Z" transform="translate(-45.89 -186.66)"/></svg>