<?xml version="1.0" encoding="utf-8"?>
<!-- Generator: Adobe Illustrator 24.1.1, SVG Export Plug-In . SVG Version: 6.00 Build 0)  -->
<svg version="1.1" id="Capa_1" xmlns="http://www.w3.org/2000/svg" xmlns:xlink="http://www.w3.org/1999/xlink" x="0px" y="0px"
	 viewBox="0 0 503.5 503.5" style="enable-background:new 0 0 503.5 503.5;" xml:space="preserve">
<style type="text/css">
	.st0{fill:#FFFFFF;}
</style>
<g>
	<circle class="st0" cx="244.2" cy="259.3" r="207.3"/>
	<path d="M197.6,384.7h-3.4c-0.2-0.1-0.5-0.1-0.7-0.2c-1.8-0.3-3.7-0.5-5.4-1c-7.3-2-12-7-15-13.8s-3.9-13.9-4.6-21.1
		c-0.6-7.1-1.1-14.2-1.8-21.2c-0.2-3.1-1-6.1-2.2-9c-0.5-1.5-1.5-2.7-2.8-3.6c-5.9-3.6-11.3-7.8-16.3-12.6c-0.2-0.1-0.3-0.3-0.5-0.4
		c-0.6,3.5-1,7-1.9,10.4c-2.6,9.7-7.8,17.7-16.2,23.4c-4.4,3-9.3,4.8-14.8,4.4c-4.5-0.3-8-2.4-10-6.7c-1.1-2.4-1.4-5-1-7.6
		c0.9-5.8,0-11.7-2.6-16.9c-2.6-5.3-6.2-10-10.6-13.8c-2.3-2-4.9-3.7-7.2-5.8c-6.6-6.1-12.8-12.6-17.9-20.1
		c-3.2-4.7-5.8-9.7-6.9-15.4c-0.3-1.5-0.5-3-0.7-4.4v-2.4c0.2-1.4,0.4-2.8,0.7-4.2c1.3-5.8,4.3-10.6,8.2-15c4.5-5.1,9.7-9.4,15-13.7
		c7.1-5.8,14.3-11.4,20.6-18c4.9-4.9,9-10.7,12.1-16.9c1.6-3.4,3-6.9,4.7-10.2c3-6,6.7-11.5,11.8-15.9c5.3-4.7,11.5-7.2,18.7-7.1
		c6.4,0.1,12.1,2.3,17.4,5.8c0.5,0.4,1.2,0.4,1.7,0c3.2-2.1,6.3-4.2,9.7-6.2c13.5-7.8,27.8-12.9,43.6-13.2c7.2-0.2,14.3,0.9,21,3.4
		c1.4,0.6,3,0.6,4.4,0c10.7-3.9,21.7-4.2,32.8-2.3c10.6,1.9,20.8,5.7,30.1,11.1c4.2,2.4,8.2,5,12.3,7.5c1.8-1,3.6-2.1,5.6-3
		c6.2-2.9,12.7-4.1,19.5-2.4c6.5,1.6,11.5,5.4,15.8,10.4c4.2,5.1,7.6,10.8,10.1,17c0.3,0.7,0.7,1,1.4,0.8c1.3-0.3,2.7-0.6,4-1
		c10.8-3.1,21.4-7,31.2-12.6c5.8-3.3,12.7,0.1,14.2,6.6c2.2,9.9,2.3,19.9,1.1,30c-1,8.5-2.8,16.9-5.4,25.1c-0.2,0.5,0,1.1,0.4,1.5
		c2.5,2.7,4.8,5.5,6.9,8.4c4.2,5.8,5.9,13.2,4.5,20.3c-1,5-2.9,9.7-5.7,14c-4.6,7.4-10.5,13.8-16.7,19.8c-1,1.1-2.1,2.1-3.3,3
		c-4.8,3.2-9,7.2-12.6,11.7c-3.8,4.8-6.4,10.1-7.3,16.3c-0.4,3-0.1,6,0.2,9c0.6,6.5-3.2,11.9-9.3,13.1c-4.2,0.7-8.4,0.1-12.2-1.8
		c-9-4.2-14.9-11.3-18.7-20.3c-0.8-2-1.4-4.1-2.2-6.2l-0.7,0c-3.5,0.3-7,0.7-10.4,0.7c-2.2-0.1-4.5,0.6-6.3,1.8
		c-2.1,1.3-3.6,3.3-4.4,5.6c-1.2,4-1.9,8.1-2.2,12.2c-0.6,7.1-1.1,14.3-1.8,21.4c-0.5,5.4-1.7,10.6-3.7,15.6
		c-3.4,8.1-9.1,13.5-18,15.1c-1.2,0.2-2.4,0.3-3.6,0.5h-3.4c-0.1-0.1-0.3-0.1-0.4-0.2c-8.1-0.7-16.1-2-23.9-4.2
		c-4.6-1.4-9.3-2-14-1.8c-4.3,0.2-8.5,0.1-12.8,0c-3.6-0.2-7.2,0.1-10.7,1c-7.5,2.2-15.3,3.7-23.1,4.6L197.6,384.7z M315.6,311.4
		c-1.6-0.4-3.1-0.6-4.5-1.1c-13.8-4-26.8-10.1-38.7-18.1c-7.8-5.4-14.7-11.7-20.1-19.6c-7.8-11.6-11.3-24.2-8.7-38.2
		c0-0.4,0-0.8-0.2-1.1c-0.9-2.8-2-5.5-2.9-8.3c-4.7-14.7-7.5-29.6-6.6-45.1c0.2-4.4,0.9-8.8,2-13.1c1.2-4,4.8-6.8,9-6.8
		c1.7-0.1,3.4,0.4,4.9,1.2c10.4,6.1,21.7,10,33.3,13.2c2.3,0.6,4.8,0.3,7-0.8c3.6-1.8,7.1-3.5,10.8-4.9c7.6-3,15.7-4.5,23.9-4.5
		c1.9,0,3.7,0.1,5.6,0.1c2.2,0,4.4,0,6.6,0.1c7.6,0.7,15,2.6,22,5.6c0.6,0.2,1.1,0.4,1.9,0.7c-3.3-5.9-6.9-11.1-12.5-14.6
		c-2.6-1.7-5.7-2.7-8.8-2.9c-6.5-0.3-12.1,2.2-17.1,6c-2.1,1.6-3.5,1.6-5.6,0.1c-6-4.4-12.4-8.3-19.2-11.5
		c-11-5.2-22.5-8.5-34.8-8.1c-6.6,0.2-13,1.3-19,4.2c-1,0.5-2.2,0.5-3.2,0c-0.7-0.3-1.5-0.7-2.2-1c-8.2-3.2-16.8-3.8-25.5-2.9
		c-8.7,1-17.2,3.5-25.2,7.3c-7.1,3.4-13.9,7.4-20.3,12.1c-1.8,1.3-3.3,1.2-5.1-0.1c-2-1.5-4.2-2.8-6.5-4c-4.3-2.2-9.2-2.9-13.9-1.8
		c-4.7,1.1-8.3,3.8-11.5,7.3c-4.4,4.8-7.4,10.5-9.9,16.4c-1.6,3.9-3.5,7.7-5.8,11.3c-5,7.9-11.4,14.5-18.4,20.5
		c-6,5.1-12.2,10.1-18.3,15.2c-4.2,3.4-8,7.3-11.2,11.6c-3.5,4.9-5.1,10.2-3.8,16.2c1,4.2,2.8,8.3,5.2,11.9
		c3.5,5.2,7.5,10.1,12,14.5c2.4,2.5,5.1,4.9,7.9,7c5.5,4.1,10.3,9.1,14.1,14.8c4.8,7.4,7.3,15.4,6.4,24.3c-0.2,1.4-0.2,2.8-0.2,4.2
		c0,1.9,1.4,3.4,3.3,3.6c1.3,0.2,2.6,0.1,3.9-0.1c4.2-1,8.1-3.2,11.1-6.3c7.2-7.1,10.2-16,10.5-25.9c0.1-4.2-0.6-8.4-1.1-12.6
		c-1-7.3-1.9-14.6-2.4-22c-0.7-9.3-1.1-18.7-1.4-28c-0.3-10.2,0.1-20.5,1.1-30.7c0.6-6,1.5-11.9,2.3-17.9c0.3-1.9,2-3.3,4-3.1
		c0,0,0,0,0,0c0.1,0,0.3,0,0.4,0.1c2,0.4,3.3,2.3,2.9,4.3v0.1c-2.1,12.7-3.2,25.6-3.2,38.4c-0.2,11,0.3,22.1,1.1,33
		c0.7,9.3,1.6,18.5,3.2,27.7c0.1,0.5,0.3,0.9,0.6,1.3c5.9,6.7,12.8,12.5,20.3,17.3c3.1,1.9,5.5,4.7,6.7,8.1c1.9,4.8,2.5,9.9,3,15.1
		c0.6,7.1,1.1,14.3,1.8,21.4c0.4,4.8,1.5,9.4,3.3,13.9c1.7,4,4.1,7.3,8.2,9.2c3.2,1.4,6.6,1.8,10.1,1.4c7.1-0.6,14.2-1.8,21.1-3.6
		c5-1.4,10-2.6,15.2-2.4c4.9,0.2,9.8,0.2,14.7,0.1c4.2-0.2,8.4,0.2,12.4,1.2c4.8,1.2,9.7,2.4,14.6,3.3c4.4,1,8.9,1.5,13.4,1.5
		c6.7-0.1,11.6-3.1,14.7-9.1c1.5-3.1,2.5-6.3,3.1-9.6c1.5-7.6,1.7-15.2,2.4-22.9c0.4-4.7,1-9.5,1.8-14.2
		C312,317.8,313.4,314.4,315.6,311.4L315.6,311.4z M348.6,309.9c0.4,1.2,0.7,2.4,1.1,3.5c2.6,7,6.8,12.8,13.4,16.7
		c2.4,1.6,5.3,2.5,8.2,2.6c3.3,0,4.9-1.6,4.9-4.9c0-0.5,0-1.1-0.1-1.6c-1-6.5,0-13.2,2.7-19.2c3.4-7.7,8.7-14,15.1-19.4
		c1.8-1.5,3.9-2.8,5.6-4.4c4.4-4,8.5-8.3,12.3-12.9c3.7-4.5,6.9-9.3,8.9-14.8c3.1-8.6,0.8-16.2-6.4-23.7c-0.7,1.2-0.9,2.6-0.6,4
		c1.8,10.7-0.2,20.8-5.1,30.4c-4.4,8.7-10.7,15.7-18.2,21.8c-8.9,7.2-18.8,12.6-29.3,17C357.1,306.7,353,308.2,348.6,309.9
		L348.6,309.9z M328.6,242.1h-8.5c-1.1,0-2.1,0.1-2.7,1.3s-0.1,2,0.6,2.8c2.9,3.8,5.7,7.7,8.5,11.5c1.2,1.6,2.8,1.6,4,0
		c2.9-3.9,5.8-7.8,8.7-11.7c0.7-0.7,0.8-1.8,0.4-2.7c-0.5-0.9-1.4-1.4-2.4-1.2H328.6L328.6,242.1z M365.7,232.7c3.8,0,6.9-3.2,6.9-7
		c0-3.8-3.2-6.9-7-6.9c-3.8,0-6.9,3.2-6.9,7C358.7,229.6,361.8,232.6,365.7,232.7L365.7,232.7z M298.4,225.8c0-3.6-2.9-6.4-6.5-6.4
		c-3.6,0-6.4,2.9-6.4,6.5c0,3.6,2.9,6.4,6.5,6.4c3.5,0,6.3-2.9,6.4-6.4V225.8z M328.6,271.8c2.6,3.8,7.4,5.6,11.9,4.4
		c2.7-0.7,5.1-2.1,7.1-4.1c0.5-0.4,0.6-1.1,0.2-1.6c0,0,0,0,0,0l-0.1-0.1c-0.4-0.5-1.1-0.6-1.6-0.2c0,0,0,0-0.1,0l-0.1,0.1
		c-0.4,0.3-0.8,0.7-1.2,1c-2.4,1.9-5,3.1-8.2,2.8c-3.6-0.4-6.5-3.1-6.7-6.4c0-0.8-0.3-1.4-1.2-1.5c-0.8-0.1-1.2,0.5-1.3,1.5
		c-0.1,2.4-1.6,4.5-3.7,5.5c-2.7,1.5-6,1.4-8.7-0.2c-1.3-0.8-2.5-1.6-3.6-2.6c-0.6-0.5-1.3-0.7-1.8,0c-0.5,0.5-0.5,1.2,0,1.7
		c0,0,0,0,0,0l0.1,0.1c0.4,0.4,0.8,0.7,1.3,1.1C317.1,278.2,324.9,277.2,328.6,271.8L328.6,271.8z M278.1,252
		c-6.1,0-12.2,0.8-18.1,2.5c-1,0.3-1.5,0.9-1.2,1.6c0.2,0.7,0.9,0.9,1.9,0.7c1.6-0.4,3.3-0.9,4.9-1.2c10.1-2,20.2-1.4,30.1,0.9
		c2.1,0.5,4.1,1.1,6.2,1.6c0.7,0.2,1.3,0,1.6-0.7c0.3-0.6,0-1.2-0.6-1.5c0,0,0,0,0,0l-0.2-0.1c-0.3-0.1-0.6-0.2-0.9-0.3
		C294.1,253.2,286.1,252,278.1,252L278.1,252z M379.1,252v-0.2c-4.2,0.4-8.5,0.7-12.7,1.3c-3.9,0.6-7.7,1.8-11.6,2.7
		c-0.7,0.1-1.2,0.7-1.1,1.3c0,0,0,0,0,0c0,0.1,0,0.1,0,0.2c0.2,0.7,0.9,1.1,1.7,0.8c5.1-1.6,10.3-2.7,15.6-3.3
		c5.4-0.7,10.9-0.7,16.3,0.1c3.2,0.5,6.3,1.2,9.5,1.9c1.1,0.2,1.9-0.3,1.7-1.3c-0.1-0.8-0.7-0.9-1.3-1.1
		C391.2,252.8,385.2,252,379.1,252L379.1,252z M392.1,242.1c0-0.7-0.5-1.2-1.1-1.2c0,0,0,0,0,0c-0.1,0-0.2,0-0.3,0
		c-0.9,0.1-1.9,0.3-2.8,0.5c-9.7,1.9-19.2,4.6-28.6,7.3c-1.6,0.5-3.2,0.9-4.7,1.4c-0.7,0.2-1.1,0.7-0.9,1.4c0.3,0.4,0.7,0.8,1.2,1
		c0.2,0.1,0.6-0.1,0.9-0.2c5.2-1.5,10.4-3.1,15.6-4.4c6.4-1.6,12.9-3,19.4-4.5C391.6,243.1,392.1,242.9,392.1,242.1L392.1,242.1z
		 M266.5,240.8c-0.7-0.1-1.3,0.4-1.4,1.1c0,0,0,0,0,0c0,0,0,0.1,0,0.1c-0.1,0.6,0.4,1.2,1,1.3h0.3c7.3,1.7,14.5,3.3,21.8,5.2
		c4.6,1.2,9.2,2.6,13.7,3.9c0.8,0.2,1.4,0.1,1.6-0.7c0.3-0.8-0.1-1.3-1-1.6l-0.3-0.1l-27.3-7.4C272.2,241.9,269.3,241.4,266.5,240.8
		L266.5,240.8z"/>
	<path class="st0" d="M315.6,311.4c-2.2,2.9-3.6,6.3-4.1,9.9c-0.7,4.7-1.3,9.4-1.8,14.2c-0.7,7.6-0.9,15.3-2.4,22.9
		c-0.6,3.3-1.7,6.6-3.1,9.6c-3,6.1-8,9-14.7,9.1c-4.5,0-9-0.6-13.4-1.5c-4.9-0.9-9.8-2.1-14.6-3.3c-4.1-1-8.2-1.4-12.4-1.2
		c-4.9,0.1-9.8,0.1-14.7-0.1c-5.3-0.2-10.2,1-15.2,2.4c-6.9,1.8-13.9,3-21,3.6c-3.4,0.4-6.9-0.1-10.1-1.4c-4.1-1.8-6.5-5.2-8.2-9.2
		c-1.8-4.4-2.9-9.1-3.3-13.9c-0.7-7.1-1.2-14.3-1.8-21.4c-0.5-5.1-1.1-10.2-3-15.1c-1.3-3.4-3.6-6.2-6.7-8.1
		c-7.6-4.8-14.4-10.6-20.3-17.3c-0.3-0.4-0.5-0.8-0.6-1.3c-1.6-9.2-2.5-18.4-3.2-27.7c-0.8-11-1.3-22-1.1-33
		c0.1-12.9,1.2-25.7,3.2-38.4c0.4-2-0.9-3.9-2.9-4.3l0,0c-1.9-0.5-3.8,0.7-4.3,2.6c0,0,0,0,0,0c0,0.1-0.1,0.3-0.1,0.4
		c-0.8,6-1.7,11.9-2.3,17.9c-1,10.2-1.4,20.5-1.1,30.7c0.3,9.3,0.7,18.7,1.4,28c0.5,7.3,1.4,14.7,2.4,22c0.6,4.2,1.3,8.3,1.1,12.6
		c-0.3,9.9-3.3,18.8-10.5,25.9c-3,3.1-6.9,5.3-11.1,6.3c-1.3,0.2-2.6,0.3-3.9,0.1c-1.9-0.2-3.3-1.7-3.3-3.6c0-1.4,0-2.8,0.2-4.2
		c0.8-8.9-1.6-16.9-6.4-24.3c-3.8-5.7-8.5-10.8-14.1-14.8c-2.8-2.1-5.4-4.5-7.9-7c-4.5-4.4-8.6-9.3-12.1-14.6
		c-2.5-3.6-4.2-7.6-5.2-11.9c-1.3-6,0.3-11.3,3.8-16.2c3.3-4.3,7-8.2,11.3-11.6c6-5.1,12.2-10.1,18.3-15.2c7-6,13.4-12.6,18.4-20.5
		c2.2-3.6,4.2-7.4,5.8-11.3c2.5-5.9,5.5-11.6,9.9-16.4c3.2-3.5,6.8-6.2,11.5-7.3c4.7-1,9.6-0.4,13.9,1.8c2.2,1.2,4.4,2.5,6.5,4
		c1.8,1.3,3.3,1.4,5.1,0.1c6.4-4.7,13.2-8.8,20.3-12.1c7.9-3.8,16.4-6.3,25.2-7.3c8.7-1,17.3-0.4,25.5,2.9c0.8,0.3,1.5,0.7,2.2,1
		c1,0.5,2.2,0.5,3.2,0c6-2.9,12.4-4.1,19-4.2c12.4-0.3,23.8,2.9,34.8,8.1c6.7,3.3,13.1,7.1,19.2,11.6c2.1,1.5,3.5,1.5,5.6-0.1
		c5.1-3.8,10.6-6.3,17.1-6c3.1,0.2,6.2,1.2,8.8,2.9c5.6,3.5,9.2,8.7,12.5,14.6c-0.8-0.3-1.4-0.5-1.9-0.7c-7-3-14.4-4.8-22-5.6
		c-2.2-0.2-4.4-0.1-6.6-0.1c-1.9,0-3.7-0.1-5.6-0.1c-8.2,0-16.3,1.5-23.9,4.5c-3.7,1.4-7.3,3.2-10.8,4.9c-2.1,1.2-4.6,1.5-7,0.8
		c-11.6-3.2-22.9-7.1-33.3-13.2c-1.5-0.9-3.2-1.3-4.9-1.2c-4.2,0-7.9,2.8-9.1,6.9c-1.1,4.3-1.8,8.7-2,13.1
		c-0.9,15.5,1.9,30.5,6.6,45.1c0.9,2.8,1.9,5.5,2.9,8.3c0.1,0.4,0.2,0.8,0.2,1.1c-2.6,14,0.9,26.6,8.7,38.2
		c5.3,7.9,12.3,14.3,20.1,19.6c11.9,8,24.9,14.2,38.7,18.1C312.5,310.8,314,311.1,315.6,311.4z M211,151.6c-5.4,0-8.8,1.3-11.5,4.1
		c-1,1.1-2,2.1-2.9,3.3c-2.2,2.8-5,5-8.2,6.5c-3.4,1.6-6.9,3-10.4,4.5c-4.1,1.7-7.6,4.4-10.2,8c-2.5,3.6-3.2,7.4-1.4,11.5
		c0.3,0.8,0.6,1.6,0.9,2.5c0.7,1.9,0.5,4-0.5,5.8c-0.8,1.4-1.8,2.7-3,3.8c-2.3,1.8-4.6,3.4-7.1,4.8c-3.9,2.2-7,5.7-8.7,9.9
		c-3.4,8.7-5.5,18-6.1,27.3c-0.6,7.6-0.3,15.3,1,22.9c1.1,7.4,3.2,14.6,6.1,21.4c1.8,4.1,4.7,6,10,5.6c4.6-0.4,8.6-2.4,12.1-5.3
		c3.9-3.3,7.2-7.1,10-11.3c4.7-6.9,9.9-13.2,17.1-17.7c2.4-1.6,4.3-3.8,5.6-6.4c0.8-1.4,1.6-2.8,2.4-4.2c1.4-2.6,3.6-4.7,6.3-6.1
		c1.1-0.6,2.2-1.2,3.3-1.7c3.3-1.7,5.9-4,6.9-7.7c0.6-2.4,0.7-4.9,0.3-7.3c-0.5-3.3-1.1-6.6-1.8-9.9c-0.7-3-0.4-6.2,1-9.1
		c1.1-2.3,2-4.8,2.6-7.3c1.4-5.5,2.6-11.1,4-16.6c1.2-4.8,2.6-9.6,3.8-14.4c1.2-5-0.2-8.1-4.7-10.6c-3-1.6-6.2-3.1-9.4-4.4
		C216.2,152.5,213.6,151.8,211,151.6L211,151.6z M239.5,287c-2.5,0.3-5,0.5-7.5,1c-8.7,1.7-16.2,5.9-23.1,11.4
		c-3.2,2.7-3.7,7.5-1,10.7l0.1,0.1c5.4,6.4,10.8,12.9,16.3,19.2c7,8.3,19.3,9.3,27.6,2.4c0.7-0.6,1.3-1.2,1.9-1.8
		c5.5-6,10.9-12.2,16.3-18.3c2.7-3,2.5-7.7-0.4-10.5c-2.1-2.1-4.4-4.1-6.8-5.9C256.1,290.2,247.9,287.2,239.5,287z"/>
	<path class="st0" d="M348.7,309.9c4.3-1.6,8.5-3.2,12.6-4.9c10.5-4.4,20.4-9.8,29.3-17c7.5-6.1,13.8-13.2,18.2-21.8
		c4.9-9.6,6.9-19.7,5.1-30.4c-0.3-1.4-0.1-2.8,0.6-4c7.3,7.5,9.5,15.1,6.4,23.7c-2,5.5-5.2,10.3-8.9,14.8c-3.8,4.6-7.9,9-12.3,12.9
		c-1.7,1.6-3.8,2.8-5.6,4.4c-6.4,5.4-11.7,11.7-15.1,19.4c-2.7,6-3.6,12.7-2.7,19.2c0.1,0.5,0.1,1.1,0.1,1.6c0,3.3-1.6,4.9-4.9,4.9
		c-2.9-0.1-5.7-1-8.2-2.6c-6.5-3.9-10.7-9.7-13.4-16.7C349.4,312.3,349,311,348.7,309.9z"/>
	<path class="st0" d="M328.6,242.1h8.7c1-0.1,1.9,0.4,2.4,1.2c0.4,0.9,0.3,1.9-0.4,2.7c-2.9,3.9-5.8,7.8-8.7,11.7
		c-1.2,1.6-2.8,1.5-4,0c-2.8-3.8-5.7-7.7-8.5-11.5c-0.7-0.9-1.1-1.8-0.6-2.8c0.5-1.1,1.5-1.3,2.7-1.3
		C323,242.1,325.8,242.1,328.6,242.1z"/>
	<path class="st0" d="M365.7,232.7c-3.8,0-6.9-3.1-6.9-6.9c0-3.8,3.1-6.9,6.9-6.9c0,0,0,0,0,0l0,0c3.8,0,6.9,3.1,6.9,6.9
		C372.6,229.6,369.5,232.7,365.7,232.7z"/>
	<path class="st0" d="M298.4,225.8c0.1,3.8-3,6.9-6.7,6.9c0,0,0,0,0,0h-0.2c-3.8,0-6.9-3.1-6.9-7c0-3.8,3.1-6.9,7-6.9
		C295.4,218.8,298.5,222,298.4,225.8z"/>
	<path class="st0" d="M328.6,271.8c-3.6,5.5-11.5,6.5-17.6,1.4c-0.4-0.4-0.8-0.7-1.3-1.1c-0.5-0.4-0.7-1.1-0.3-1.7
		c0-0.1,0.1-0.1,0.1-0.1c0.6-0.6,1.2-0.5,1.8,0c1.1,1,2.3,1.8,3.6,2.6c2.7,1.6,6,1.7,8.7,0.2c2.1-1,3.6-3.1,3.7-5.5
		c0.1-1.1,0.5-1.6,1.3-1.5c0.9,0.1,1.1,0.7,1.2,1.5c0.2,3.3,3,6,6.7,6.4c3.2,0.3,5.8-0.8,8.2-2.8c0.4-0.3,0.8-0.7,1.2-1
		c0.4-0.5,1.1-0.6,1.6-0.2c0,0,0,0,0.1,0c0.1,0,0.1,0.1,0.1,0.1c0.5,0.5,0.5,1.2,0,1.6c0,0,0,0,0,0c0,0-0.1,0.1-0.1,0.1
		c-2,2-4.4,3.4-7.1,4.1C336,277.3,331.2,275.6,328.6,271.8z"/>
	<path class="st0" d="M278.1,252c8,0,16,1.2,23.7,3.6c0.3,0.1,0.6,0.2,0.9,0.3c0.6,0.2,1,0.8,0.8,1.4c0,0.1,0,0.1-0.1,0.2
		c-0.3,0.7-0.8,0.9-1.6,0.7c-2.1-0.6-4.1-1.2-6.2-1.6c-10-2.3-20-2.8-30.1-0.9c-1.6,0.3-3.3,0.8-4.9,1.2c-1,0.3-1.6,0-1.9-0.7
		c-0.2-0.7,0.2-1.4,1.2-1.6C265.9,252.8,272,252,278.1,252z"/>
	<path class="st0" d="M379.1,252c6.1-0.1,12.2,0.7,18,2.4c0.6,0.2,1.2,0.3,1.3,1.1c0.1,1-0.6,1.6-1.7,1.3c-3.1-0.7-6.3-1.4-9.5-1.9
		c-5.4-0.7-10.9-0.7-16.3-0.1c-5.3,0.6-10.5,1.7-15.6,3.3c-0.9,0.3-1.6,0-1.7-0.8c-0.2-0.7,0.2-1.4,0.9-1.5h0.2
		c3.9-0.9,7.7-2.1,11.6-2.7c4.2-0.7,8.5-0.9,12.7-1.3L379.1,252z"/>
	<path class="st0" d="M392.1,242.2c0,0.8-0.6,1-1.3,1.2c-6.5,1.5-13,2.9-19.4,4.5c-5.3,1.3-10.4,2.9-15.6,4.4
		c-0.3,0.1-0.7,0.3-0.9,0.2c-0.5-0.2-0.9-0.5-1.2-1c-0.3-0.7,0.2-1.2,0.9-1.4c1.6-0.5,3.1-1,4.7-1.4c9.5-2.7,18.9-5.4,28.6-7.3
		c0.9-0.2,1.9-0.4,2.8-0.5c0.6-0.1,1.3,0.3,1.4,0.9C392.1,242,392.1,242.1,392.1,242.2z"/>
	<path class="st0" d="M266.5,240.9c2.8,0.6,5.7,1.1,8.5,1.8c9.1,2.4,18.2,4.9,27.3,7.4l0.3,0.1c0.9,0.3,1.3,0.9,1,1.6
		c-0.2,0.6-0.9,1-1.5,0.8c-0.1,0-0.1,0-0.2-0.1c-4.6-1.3-9.1-2.8-13.7-3.9c-7.2-1.8-14.5-3.5-21.8-5.2h-0.2c-0.6,0-1.1-0.6-1.1-1.2
		c0,0,0,0,0-0.1c0-0.7,0.5-1.2,1.2-1.2c0,0,0,0,0,0L266.5,240.9z"/>
	<path d="M211,151.6c2.6,0.2,5.2,0.8,7.6,1.9c3.2,1.3,6.3,2.8,9.4,4.4c4.5,2.5,5.9,5.6,4.7,10.6c-1.1,4.8-2.6,9.6-3.8,14.4
		c-1.4,5.5-2.5,11.1-4,16.6c-0.6,2.5-1.5,5-2.6,7.3c-1.4,2.8-1.7,6-1,9.1c0.7,3.3,1.3,6.6,1.8,9.9c0.4,2.4,0.3,4.9-0.3,7.3
		c-1,3.7-3.6,6-6.9,7.7c-1.1,0.6-2.2,1.2-3.3,1.7c-2.7,1.3-4.9,3.5-6.3,6.1c-0.8,1.4-1.6,2.8-2.4,4.2c-1.3,2.6-3.3,4.8-5.6,6.4
		c-7.1,4.5-12.4,10.9-17.1,17.7c-2.7,4.2-6.1,8-10,11.3c-3.6,2.8-7.5,4.9-12.1,5.3c-5.3,0.4-8.2-1.5-10-5.6
		c-2.9-6.9-4.9-14.1-6.1-21.4c-1.2-7.6-1.6-15.3-1-22.9c0.7-9.3,2.7-18.5,6.1-27.2c1.7-4.2,4.7-7.7,8.7-9.9c2.5-1.4,4.9-3,7.1-4.8
		c1.2-1.1,2.2-2.3,3-3.8c1-1.7,1.2-3.9,0.5-5.8c-0.3-0.8-0.6-1.6-0.9-2.5c-1.7-4.1-1-7.9,1.4-11.5c2.6-3.6,6.1-6.3,10.2-8
		c3.5-1.5,7-3,10.4-4.5c3.2-1.5,6-3.7,8.2-6.5c0.9-1.1,1.9-2.2,2.9-3.3C202.2,152.9,205.6,151.6,211,151.6z M178.6,224.5
		c0,4.8,4,8.7,8.8,8.6c4.8,0,8.7-4,8.6-8.8c0-4.8-3.9-8.6-8.7-8.6C182.4,215.7,178.5,219.6,178.6,224.5
		C178.6,224.4,178.6,224.5,178.6,224.5L178.6,224.5z"/>
	<path d="M239.5,287c8.5,0.2,16.7,3.1,23.4,8.3c2.4,1.8,4.7,3.8,6.8,5.9c2.9,2.8,3.1,7.4,0.4,10.5c-5.4,6.1-10.7,12.4-16.3,18.3
		c-7.3,8-19.7,8.6-27.7,1.3c-0.6-0.6-1.2-1.2-1.8-1.9c-5.5-6.4-10.9-12.8-16.3-19.2c-2.7-3.2-2.3-8,0.8-10.7l0.1-0.1
		c6.8-5.5,14.3-9.7,23.1-11.4C234.4,287.5,237,287.3,239.5,287z"/>
	<path class="st0" d="M178.6,224.5c0-4.8,3.9-8.7,8.7-8.7c4.8,0,8.7,3.9,8.7,8.7c0,4.8-3.8,8.7-8.6,8.7
		C182.6,233.3,178.6,229.4,178.6,224.5C178.6,224.6,178.6,224.5,178.6,224.5z"/>
</g>
</svg>
